<svg width="17" height="17" viewBox="0 0 17 17" fill="none" xmlns="http://www.w3.org/2000/svg">
<path d="M8.32329 2.125C8.45167 2.12501 8.5757 2.1715 8.67245 2.25588C8.7692 2.34026 8.83212 2.45682 8.84958 2.584L8.85454 2.65625L8.85525 7.79167H13.9928C14.1274 7.79171 14.257 7.84284 14.3553 7.93473C14.4537 8.02662 14.5135 8.15242 14.5226 8.28671C14.5318 8.42099 14.4897 8.55376 14.4047 8.65817C14.3198 8.76258 14.1984 8.83086 14.065 8.84921L13.9928 8.85417H8.85525L8.85667 13.9896C8.85645 14.1241 8.80519 14.2536 8.71324 14.3518C8.62129 14.45 8.49551 14.5097 8.36127 14.5188C8.22704 14.5278 8.09436 14.4856 7.99002 14.4007C7.88569 14.3158 7.81746 14.1944 7.79912 14.0611L7.79417 13.9889L7.79275 8.85417H2.65804C2.52344 8.85413 2.39387 8.80299 2.29552 8.7111C2.19717 8.61921 2.13736 8.49341 2.12819 8.35913C2.11902 8.22484 2.16116 8.09208 2.2461 7.98766C2.33104 7.88325 2.45245 7.81497 2.58579 7.79662L2.65804 7.79167H7.79346L7.79204 2.65625C7.79204 2.51535 7.84801 2.38023 7.94764 2.2806C8.04727 2.18097 8.18239 2.125 8.32329 2.125Z" fill="#F04141"/>
</svg>
