<svg width="7" height="12" viewBox="0 0 7 12" fill="none" xmlns="http://www.w3.org/2000/svg">
<path d="M0.29154 2.53798L4.17154 6.41798L0.29154 10.298C0.198958 10.3906 0.125519 10.5005 0.0754137 10.6214C0.0253086 10.7424 -0.000480652 10.872 -0.000480652 11.003C-0.000480652 11.1339 0.0253086 11.2636 0.0754137 11.3845C0.125519 11.5055 0.198958 11.6154 0.29154 11.708C0.384122 11.8006 0.494033 11.874 0.614997 11.9241C0.735961 11.9742 0.86561 12 0.99654 12C1.12747 12 1.25712 11.9742 1.37808 11.9241C1.49905 11.874 1.60896 11.8006 1.70154 11.708L6.29154 7.11798C6.38424 7.02547 6.45779 6.91558 6.50797 6.7946C6.55815 6.67363 6.58398 6.54395 6.58398 6.41298C6.58398 6.28201 6.55815 6.15233 6.50797 6.03135C6.45779 5.91038 6.38424 5.80049 6.29154 5.70798L1.70154 1.11798C1.31154 0.72798 0.68154 0.72798 0.29154 1.11798C-0.08846 1.50798 -0.0984597 2.14798 0.29154 2.53798Z" fill="#3C4858"/>
</svg>
