<svg width="19" height="19" viewBox="0 0 19 19" fill="none" xmlns="http://www.w3.org/2000/svg">
<path fill-rule="evenodd" clip-rule="evenodd" d="M17.8125 9.50001C17.8125 9.65749 17.7499 9.80851 17.6386 9.91986C17.5272 10.0312 17.3762 10.0938 17.2188 10.0938L3.21456 10.0938L6.95162 13.8296C7.06312 13.9411 7.12575 14.0923 7.12575 14.25C7.12575 14.4077 7.06312 14.5589 6.95162 14.6704C6.84013 14.7819 6.68892 14.8445 6.53125 14.8445C6.37358 14.8445 6.22237 14.7819 6.11088 14.6704L1.36087 9.92039C1.30558 9.86523 1.26171 9.79971 1.23178 9.72758C1.20185 9.65544 1.18644 9.57811 1.18644 9.50001C1.18644 9.42191 1.20185 9.34458 1.23178 9.27245C1.26171 9.20031 1.30558 9.13479 1.36087 9.07964L6.11088 4.32964C6.22237 4.21815 6.37358 4.15551 6.53125 4.15551C6.68892 4.15551 6.84013 4.21815 6.95162 4.32964C7.06312 4.44113 7.12575 4.59234 7.12575 4.75001C7.12575 4.90768 7.06312 5.0589 6.95162 5.17039L3.21456 8.90626L17.2188 8.90626C17.3762 8.90626 17.5272 8.96882 17.6386 9.08017C17.7499 9.19152 17.8125 9.34254 17.8125 9.50001Z" fill="#3C4858" fill-opacity="0.8"/>
</svg>
