<svg width="8" height="11" viewBox="0 0 8 12" fill="none" xmlns="http://www.w3.org/2000/svg">
<path d="M6.71041 9.87999L2.83041 5.99999L6.71041 2.11999C6.80299 2.02741 6.87643 1.9175 6.92654 1.79653C6.97664 1.67557 7.00243 1.54592 7.00243 1.41499C7.00243 1.28406 6.97664 1.15441 6.92654 1.03345C6.87643 0.912482 6.80299 0.802571 6.71041 0.70999C6.61783 0.617408 6.50792 0.543968 6.38696 0.493863C6.26599 0.443758 6.13634 0.417969 6.00541 0.417969C5.87448 0.417969 5.74483 0.443758 5.62387 0.493863C5.50291 0.543968 5.39299 0.617408 5.30041 0.70999L0.710413 5.29999C0.617709 5.3925 0.544162 5.50239 0.49398 5.62337C0.443799 5.74434 0.417969 5.87402 0.417969 6.00499C0.417969 6.13596 0.443799 6.26564 0.49398 6.38661C0.544162 6.50759 0.617709 6.61748 0.710413 6.70999L5.30041 11.3C5.69041 11.69 6.32041 11.69 6.71041 11.3C7.09041 10.91 7.10041 10.27 6.71041 9.87999Z" fill="#3C4858"/>
</svg>
