<svg width="17" height="17" viewBox="0 0 17 17" fill="none" xmlns="http://www.w3.org/2000/svg">
<path fill-rule="evenodd" clip-rule="evenodd" d="M3.54134 14.1667H13.458C13.6459 14.1667 13.826 14.2413 13.9589 14.3742C14.0917 14.507 14.1663 14.6872 14.1663 14.875C14.1663 15.0629 14.0917 15.2431 13.9589 15.3759C13.826 15.5087 13.6459 15.5834 13.458 15.5834H3.54134C3.35348 15.5834 3.17331 15.5087 3.04047 15.3759C2.90764 15.2431 2.83301 15.0629 2.83301 14.875C2.83301 14.6872 2.90764 14.507 3.04047 14.3742C3.17331 14.2413 3.35348 14.1667 3.54134 14.1667ZM2.83301 10.625L9.91634 3.54169L12.0413 5.66669L4.95801 12.75H2.83301V10.625ZM10.6247 2.83335L12.0413 1.41669L14.1663 3.54169L12.749 4.95906L10.6247 2.83335Z" fill="#F04141"/>
</svg>
