<svg width="15" height="11" viewBox="0 0 15 11" fill="none" xmlns="http://www.w3.org/2000/svg">
<path d="M7.50098 5.5L0.00830078 1.79036V0.916667C0.00830078 0.658854 0.100984 0.441623 0.28635 0.264974C0.471715 0.0883247 0.691228 0 0.944886 0H14.0571C14.3107 0 14.5303 0.0883247 14.7156 0.264974C14.901 0.441623 14.9937 0.658854 14.9937 0.916667V1.79036L7.50098 5.5ZM7.03269 6.41667H7.96928L14.9937 2.85026V10.0833C14.9937 10.3316 14.901 10.5464 14.7156 10.7279C14.5303 10.9093 14.3107 11 14.0571 11H0.944886C0.691228 11 0.471715 10.9093 0.28635 10.7279C0.100984 10.5464 0.00830078 10.3316 0.00830078 10.0833V2.85026L7.03269 6.41667Z" fill="#F04141"/>
</svg>
