<svg width="15" height="15" viewBox="0 0 15 15" fill="none" xmlns="http://www.w3.org/2000/svg">
<path d="M14.7913 12.4731L12.6765 14.571C12.3643 14.8912 11.9505 14.9996 11.5475 15.0001C9.76541 14.9467 8.08088 14.0713 6.69778 13.1724C4.42751 11.5208 2.34443 9.47287 1.03706 6.99802C0.535633 5.96023 -0.0527169 4.6361 0.00349561 3.47773C0.00850811 3.04198 0.125933 2.61432 0.432821 2.33345L2.54765 0.219683C2.9868 -0.153855 3.41148 -0.0247047 3.69251 0.410395L5.3939 3.63667C5.57297 4.01888 5.47025 4.42841 5.20307 4.70152L4.42392 5.48027C4.37582 5.54616 4.3452 5.62116 4.34442 5.70278C4.6432 6.85931 5.54833 7.92527 6.34793 8.65886C7.14752 9.39246 8.007 10.3863 9.12265 10.6216C9.26055 10.6601 9.42946 10.6736 9.52812 10.5819L10.4345 9.6601C10.7469 9.42329 11.1981 9.30754 11.5316 9.50117H11.5475L14.6164 11.313C15.0669 11.5954 15.1139 12.1411 14.7913 12.4731Z" fill="#F04141"/>
</svg>
