<svg width="21" height="19" viewBox="0 0 21 19" fill="none" xmlns="http://www.w3.org/2000/svg"><path d="M15.412 12.2826C16.6828 10.7133 17.252 8.76779 17.0057 6.83512C16.7594 4.90245 15.7157 3.12521 14.0835 1.85896C12.4512 0.592705 10.3508 -0.0691779 8.20247 0.00572919C6.0541 0.0806363 4.01621 0.886809 2.4965 2.26296C0.976791 3.63911 0.0873414 5.48376 0.00609835 7.42784C-0.0751447 9.37193 0.65781 11.2721 2.05832 12.7482C3.45884 14.2242 5.42363 15.1674 7.55961 15.3889C9.69559 15.6104 11.8452 15.094 13.5785 13.9429H13.5772C13.6165 13.9904 13.6585 14.0355 13.7058 14.0794L18.7587 18.6518C19.0048 18.8746 19.3387 18.9999 19.6868 19C20.035 19.0001 20.3689 18.8751 20.6152 18.6524C20.8615 18.4297 20.9999 18.1276 21 17.8126C21.0001 17.4975 20.8619 17.1953 20.6158 16.9725L15.5629 12.4001C15.516 12.3572 15.4655 12.3175 15.412 12.2814V12.2826ZM15.7506 7.71735C15.7506 8.57513 15.5639 9.42452 15.2011 10.217C14.8384 11.0095 14.3066 11.7296 13.6363 12.3361C12.966 12.9427 12.1703 13.4238 11.2945 13.7521C10.4187 14.0803 9.48005 14.2493 8.53211 14.2493C7.58416 14.2493 6.6455 14.0803 5.76972 13.7521C4.89393 13.4238 4.09817 12.9427 3.42787 12.3361C2.75757 11.7296 2.22587 11.0095 1.8631 10.217C1.50034 9.42452 1.31363 8.57513 1.31363 7.71735C1.31363 5.98497 2.07415 4.32355 3.42787 3.09858C4.7816 1.87361 6.61765 1.18542 8.53211 1.18542C10.4466 1.18542 12.2826 1.87361 13.6363 3.09858C14.9901 4.32355 15.7506 5.98497 15.7506 7.71735Z" fill="white"/></svg>