<svg width="15" height="14" viewBox="0 0 15 14" fill="none" xmlns="http://www.w3.org/2000/svg"><path d="M11.0086 9.05031C11.9163 7.89405 12.3229 6.46047 12.1469 5.0364C11.971 3.61233 11.2255 2.30279 10.0596 1.36976C8.89374 0.43673 7.39345 -0.0509732 5.8589 0.00422151C4.32436 0.0594162 2.86872 0.653438 1.78321 1.66745C0.697708 2.68145 0.0623867 4.04066 0.00435596 5.47315C-0.0536748 6.90563 0.469864 8.30575 1.47023 9.39339C2.4706 10.481 3.87402 11.176 5.39972 11.3392C6.92542 11.5024 8.46088 11.1219 9.69891 10.2737H9.69798C9.7261 10.3087 9.7561 10.3419 9.78985 10.3743L13.3991 13.7434C13.5749 13.9076 13.8133 13.9999 14.062 14C14.3107 14.0001 14.5492 13.9079 14.7251 13.7439C14.901 13.5798 14.9999 13.3572 15 13.125C15.0001 12.8929 14.9014 12.6702 14.7256 12.506L11.1164 9.13695C11.0828 9.10528 11.0468 9.07602 11.0086 9.04944V9.05031ZM11.2504 5.68647C11.2504 6.31852 11.1171 6.94438 10.8579 7.52832C10.5988 8.11226 10.219 8.64284 9.74024 9.08977C9.26146 9.5367 8.69306 9.89122 8.0675 10.1331C7.44194 10.375 6.77147 10.4995 6.09436 10.4995C5.41726 10.4995 4.74679 10.375 4.12123 10.1331C3.49566 9.89122 2.92726 9.5367 2.44848 9.08977C1.9697 8.64284 1.5899 8.11226 1.33079 7.52832C1.07167 6.94438 0.938307 6.31852 0.938307 5.68647C0.938307 4.40998 1.48153 3.18578 2.44848 2.28316C3.41543 1.38055 4.72689 0.873469 6.09436 0.873469C7.46183 0.873469 8.7733 1.38055 9.74024 2.28316C10.7072 3.18578 11.2504 4.40998 11.2504 5.68647Z" fill="#3C4858"/></svg>