<svg width="26" height="26" viewBox="0 0 26 26" fill="none" xmlns="http://www.w3.org/2000/svg">
<path d="M15.6006 4.54998C15.6006 4.0328 15.806 3.53681 16.1717 3.17112C16.5374 2.80542 17.0334 2.59998 17.5506 2.59998H20.1506C20.6678 2.59998 21.1637 2.80542 21.5294 3.17112C21.8951 3.53681 22.1006 4.0328 22.1006 4.54998V21.45C22.1006 21.9671 21.8951 22.4631 21.5294 22.8288C21.1637 23.1945 20.6678 23.4 20.1506 23.4H17.5506C17.0334 23.4 16.5374 23.1945 16.1717 22.8288C15.806 22.4631 15.6006 21.9671 15.6006 21.45V4.54998Z" fill="#F04141" fill-opacity="0.7"/>
<path d="M3.90039 4.54998C3.90039 4.0328 4.10584 3.53681 4.47153 3.17112C4.83723 2.80542 5.33322 2.59998 5.85039 2.59998H8.45039C8.96756 2.59998 9.46355 2.80542 9.82925 3.17112C10.1949 3.53681 10.4004 4.0328 10.4004 4.54998V21.45C10.4004 21.9671 10.1949 22.4631 9.82925 22.8288C9.46355 23.1945 8.96756 23.4 8.45039 23.4H5.85039C5.33322 23.4 4.83723 23.1945 4.47153 22.8288C4.10584 22.4631 3.90039 21.9671 3.90039 21.45V4.54998Z" fill="#F04141" fill-opacity="0.7"/>
</svg>
