<svg width="12" height="14" viewBox="0 0 12 14" fill="none" xmlns="http://www.w3.org/2000/svg">
<path fill-rule="evenodd" clip-rule="evenodd" d="M6.6665 3.12819V11.0417H5.33317V3.12819L3.17117 5.42531L2.2285 4.42373L5.99984 0.416687L9.77117 4.42373L8.8285 5.42531L6.6665 3.12819ZM1.33317 12.4584H10.6665C10.8433 12.4584 11.0129 12.533 11.1379 12.6658C11.2629 12.7987 11.3332 12.9788 11.3332 13.1667C11.3332 13.3545 11.2629 13.5347 11.1379 13.6676C11.0129 13.8004 10.8433 13.875 10.6665 13.875H1.33317C1.15636 13.875 0.98679 13.8004 0.861766 13.6676C0.736742 13.5347 0.666504 13.3545 0.666504 13.1667C0.666504 12.9788 0.736742 12.7987 0.861766 12.6658C0.98679 12.533 1.15636 12.4584 1.33317 12.4584Z" fill="#F04141"/>
</svg>