<svg width="51" height="51" viewBox="0 0 51 51" fill="none" xmlns="http://www.w3.org/2000/svg">
<path fill-rule="evenodd" clip-rule="evenodd" d="M25.5 0C21.2933 0.0131915 17.23 1.53043 14.0441 4.27763C11.6025 6.38138 9.83344 9.12262 9.37762 11.8734C4.03537 13.0528 0 17.7066 0 23.3261C0 29.8541 5.44425 35.0625 12.0519 35.0625H23.9062V18.1911L17.0659 25.0346C16.7666 25.3339 16.3607 25.502 15.9375 25.502C15.5143 25.502 15.1084 25.3339 14.8091 25.0346C14.5099 24.7354 14.3417 24.3295 14.3417 23.9062C14.3417 23.483 14.5099 23.0771 14.8091 22.7779L24.3716 13.2154C24.5197 13.067 24.6955 12.9492 24.8892 12.8689C25.0828 12.7885 25.2904 12.7472 25.5 12.7472C25.7096 12.7472 25.9172 12.7885 26.1108 12.8689C26.3045 12.9492 26.4803 13.067 26.6284 13.2154L36.1909 22.7779C36.4901 23.0771 36.6583 23.483 36.6583 23.9062C36.6583 24.3295 36.4901 24.7354 36.1909 25.0346C35.8916 25.3339 35.4857 25.502 35.0625 25.502C34.6393 25.502 34.2334 25.3339 33.9341 25.0346L27.0938 18.1911V35.0625H40.443C46.2251 35.0625 51 30.5044 51 24.7764C51 19.5617 47.0411 15.3127 41.9666 14.5956C41.1921 6.37181 34.0744 0 25.5 0ZM23.9062 46.2188V35.0625H27.0938V46.2188C27.0938 46.6414 26.9258 47.0468 26.627 47.3457C26.3281 47.6446 25.9227 47.8125 25.5 47.8125C25.0773 47.8125 24.6719 47.6446 24.373 47.3457C24.0742 47.0468 23.9062 46.6414 23.9062 46.2188Z" fill="#F04141"/>
</svg>
