<svg width="32" height="32" viewBox="0 0 32 32" fill="none" xmlns="http://www.w3.org/2000/svg">
<path d="M16 2.66666C12.324 2.66666 9.33333 5.65732 9.33333 9.33332C9.33333 13.0093 12.324 16 16 16C19.676 16 22.6667 13.0093 22.6667 9.33332C22.6667 5.65732 19.676 2.66666 16 2.66666ZM16 13.3333C13.7947 13.3333 12 11.5387 12 9.33332C12 7.12799 13.7947 5.33332 16 5.33332C18.2053 5.33332 20 7.12799 20 9.33332C20 11.5387 18.2053 13.3333 16 13.3333ZM28 28V26.6667C28 21.5213 23.812 17.3333 18.6667 17.3333H13.3333C8.18667 17.3333 4 21.5213 4 26.6667V28H6.66667V26.6667C6.66667 22.9907 9.65733 20 13.3333 20H18.6667C22.3427 20 25.3333 22.9907 25.3333 26.6667V28H28Z" fill="#3C4858"/>
</svg>
